<svg xmlns="http://www.w3.org/2000/svg" xmlns:xlink="http://www.w3.org/1999/xlink" width="2000" zoomAndPan="magnify" viewBox="0 0 1500 1499.999933" height="2000" preserveAspectRatio="xMidYMid meet" version="1.0"><defs><g/><clipPath id="49e97b6a9d"><rect x="0" width="842" y="0" height="1500"/></clipPath><clipPath id="26da9bd535"><path d="M 46 318 L 774.960938 318 L 774.960938 930 L 46 930 Z M 46 318 " clip-rule="nonzero"/></clipPath><clipPath id="07112aa2d4"><rect x="0" width="775" y="0" height="1191"/></clipPath><clipPath id="5173cef928"><path d="M 530.964844 0 L 1488.664062 0 L 1488.664062 588.835938 L 530.964844 588.835938 Z M 530.964844 0 " clip-rule="nonzero"/></clipPath><clipPath id="89dceb7592"><path d="M 0.964844 0 L 958 0 L 958 588.835938 L 0.964844 588.835938 Z M 0.964844 0 " clip-rule="nonzero"/></clipPath><clipPath id="a4a373d7d0"><rect x="0" width="959" y="0" height="589"/></clipPath><clipPath id="3e3978ecd4"><path d="M 572.019531 365.015625 L 760.640625 365.015625 L 760.640625 562.480469 L 572.019531 562.480469 Z M 572.019531 365.015625 " clip-rule="nonzero"/></clipPath><clipPath id="a80f8a7847"><path d="M 572.019531 365.472656 L 760.640625 365.472656 L 760.640625 562.480469 Z M 572.019531 365.472656 " clip-rule="nonzero"/></clipPath><clipPath id="07c17c79a7"><path d="M 0.0195312 0.28125 L 188.640625 0.28125 L 188.640625 197.480469 L 0.0195312 197.480469 Z M 0.0195312 0.28125 " clip-rule="nonzero"/></clipPath><clipPath id="427ee695f3"><path d="M 0.0195312 0.472656 L 188.640625 0.472656 L 188.640625 197.480469 Z M 0.0195312 0.472656 " clip-rule="nonzero"/></clipPath><clipPath id="ac02fd1531"><rect x="0" width="189" y="0" height="198"/></clipPath></defs><g transform="matrix(1, 0, 0, 1, 169, 0.000000000000112861)"><g clip-path="url(#49e97b6a9d)"><g fill="#000000" fill-opacity="1"><g transform="translate(0.363188, 1199.666382)"><g><path d="M 311.582031 -834.636719 C 147.65625 -775.824219 28.78125 -599.386719 28.78125 -416.691406 C 28.78125 -234 147.65625 -58.8125 311.582031 0 Z M 586.875 -625.664062 L 586.875 -834.636719 L 377.902344 -834.636719 Z M 586.875 -625.664062 "/></g></g></g><g fill="#000000" fill-opacity="1"><g transform="translate(519.685706, 1199.666382)"><g/></g></g></g></g><g transform="matrix(1, 0, 0, 1, 516, 277)"><g clip-path="url(#07112aa2d4)"><g clip-path="url(#26da9bd535)"><g fill="#000000" fill-opacity="1"><g transform="translate(1.14702, 929.187199)"><g><path d="M 242.5 0 L 242.5 -610.367188 L 45.753906 -610.367188 L 45.753906 0 Z M 507.878906 0 L 507.878906 -389.832031 C 507.878906 -453.886719 497.8125 -505.132812 449.3125 -553.632812 C 411.792969 -591.152344 370.613281 -608.539062 311.132812 -610.367188 L 311.132812 0 Z M 773.253906 0 L 773.253906 -389.832031 C 773.253906 -453.886719 763.191406 -505.132812 714.691406 -553.632812 C 677.171875 -591.152344 635.992188 -608.539062 576.511719 -610.367188 L 576.511719 0 Z M 773.253906 0 "/></g></g></g></g></g></g><g clip-path="url(#5173cef928)"><g transform="matrix(1, 0, 0, 1, 530, 0.000000000000112861)"><g clip-path="url(#a4a373d7d0)"><g clip-path="url(#89dceb7592)"><path fill="#ffffff" d="M 0.964844 0 L 957.828125 0 L 957.828125 588.835938 L 0.964844 588.835938 Z M 0.964844 0 " fill-opacity="1" fill-rule="nonzero"/></g></g></g></g><g clip-path="url(#3e3978ecd4)"><g clip-path="url(#a80f8a7847)"><g transform="matrix(1, 0, 0, 1, 572, 365)"><g clip-path="url(#ac02fd1531)"><g clip-path="url(#07c17c79a7)"><g clip-path="url(#427ee695f3)"><path fill="#d82929" d="M 188.640625 197.480469 L 0.0195312 197.480469 L 0.0195312 0.753906 L 188.640625 0.753906 Z M 188.640625 197.480469 " fill-opacity="1" fill-rule="nonzero"/></g></g></g></g></g></g></svg>